# Blender v2.77 (sub 0) OBJ File: ''
# www.blender.org
o Sphere
v -0.665087 0.670298 -0.256463
v -0.931674 0.152911 -0.335859
v -0.934288 -0.248095 -0.315531
v -0.570824 -0.771977 -0.417003
v -0.191909 0.932665 -0.177421
v -0.179356 0.751673 -0.627138
v -0.481959 0.456648 -0.772692
v -0.440250 0.071543 -0.932718
v -0.390047 -0.490368 -0.866624
v -0.086739 -0.962108 -0.466408
v 0.287954 -0.579740 -0.886851
v 0.216935 0.261664 -1.002143
v 0.065229 -1.068169 0.058838
v 0.255128 0.891212 -0.402408
v 0.741589 0.453739 -0.609874
v 0.726584 -0.390747 -0.732069
v 0.373305 -0.994990 -0.189318
v 1.017280 -0.146217 -0.309717
v 0.803216 -0.719986 -0.154413
v 0.490285 0.867832 -0.036501
v 0.951436 0.443426 0.057079
v 0.947206 -0.365430 0.327935
v 0.740327 -0.241050 0.679677
v 0.420637 0.751118 0.470041
v 0.715359 0.366715 0.611264
v 0.412534 0.066801 0.907655
v 0.415798 -0.837134 0.517645
v 0.177008 0.457231 0.856868
v -0.104940 0.747732 0.586586
v 0.043298 -0.373724 0.963095
v 0.105321 0.948401 0.183124
v -0.365792 0.262625 0.875811
v -0.783640 -0.322063 0.550445
v -0.732621 0.399368 0.517432
v -0.493091 -0.907332 0.112475
v -0.438186 0.831110 0.244223
v -0.376312 -0.824799 0.523774
v -0.888072 0.002503 0.422208
v -0.851643 -0.543287 0.024979
vt 0.4800 0.6469
vt 0.3941 0.7002
vt 0.4094 0.5900
vt 0.4841 0.2291
vt 0.8459 0.2017
vt 0.7181 0.2600
vt 0.3746 0.2707
vt 0.4107 0.3903
vt 0.3202 0.3528
vt 0.2650 0.5239
vt 0.2398 0.3572
vt 0.3466 0.5433
vt 0.3294 0.6291
vt 0.2725 0.2251
vt 0.2534 0.7665
vt 0.3295 0.4659
vt 0.5436 0.7378
vt 0.7259 0.4321
vt 0.6816 0.5777
vt 0.6839 0.4526
vt 0.8700 0.2973
vt 0.1965 0.5861
vt 0.1949 0.4130
vt 0.1441 0.2468
vt 0.1299 0.3486
vt 0.1313 0.7237
vt 0.1460 0.4730
vt 0.1095 0.5973
vt 0.6924 0.7963
vt 0.7759 0.3486
vt 0.6759 0.3109
vt 0.4994 0.5322
vt 0.5589 0.6458
vt 0.6395 0.5055
vt 0.6081 0.4068
vt 0.6535 0.6734
vt 0.6093 0.5802
vt 0.5554 0.2793
vt 0.5547 0.5191
vt 0.5083 0.3870
vt 0.4876 0.4479
vt 0.4091 0.4708
vt 0.4502 0.3273
vt 0.7920 0.4730
vt 0.7555 0.5973
vn -0.4754 0.8773 -0.0664
vn -0.2849 -0.9522 -0.1099
vn -0.7336 -0.4029 -0.5473
vn -0.0479 -0.1396 -0.9891
vn -0.4859 0.7331 -0.4758
vn -0.3459 -0.7263 -0.5940
vn -0.1027 0.9218 -0.3738
vn -0.1116 -0.6836 -0.7212
vn -0.1998 0.3575 -0.9123
vn 0.0498 0.9952 -0.0845
vn 0.8720 0.0900 0.4811
vn 0.1551 0.6765 -0.7200
vn 0.0592 -0.9750 -0.2140
vn 0.5697 0.1078 -0.8147
vn 0.2865 0.6517 -0.7023
vn 0.4982 -0.7169 -0.4877
vn 0.5591 0.7689 -0.3102
vn 0.9172 0.2792 -0.2843
vn 0.1767 0.9829 -0.0508
vn 0.5233 -0.8378 0.1556
vn -0.4398 0.6749 0.5925
vn 0.6362 0.1121 0.7634
vn 0.4088 -0.4399 0.7996
vn 0.4172 0.5776 0.7016
vn 0.4364 0.3699 0.8202
vn 0.1401 0.7439 0.6534
vn -0.0029 0.1273 0.9919
vn -0.0103 -0.8899 0.4560
vn -0.0115 0.1286 0.9916
vn -0.1553 0.9144 0.3739
vn -0.4303 -0.3918 0.8132
vn -0.6745 0.0732 0.7346
vn -0.2446 -0.9349 0.2571
vn -0.1966 0.9732 0.1196
vn -0.7701 0.6200 0.1499
vn -0.9338 0.3368 0.1205
vn -0.9827 -0.0864 0.1636
vn -0.7008 -0.7091 -0.0784
vn -0.8174 -0.5185 -0.2511
vn -0.3754 -0.9097 -0.1774
vn -0.7586 0.4614 -0.4601
vn -0.4087 0.8427 -0.3505
vn -0.7462 0.1850 -0.6396
vn -0.1236 0.5381 -0.8338
vn 0.3677 -0.0957 -0.9250
vn 0.2533 -0.8173 -0.5175
vn 0.4845 -0.7308 -0.4808
vn 0.8018 0.0716 -0.5933
vn 0.8450 -0.4086 -0.3450
vn 0.6850 0.6992 -0.2047
vn 0.9351 -0.3540 -0.0189
vn 0.9920 0.0354 0.1212
vn 0.6912 -0.6651 0.2825
vn 0.6260 0.7366 0.2558
vn 0.6651 0.6470 0.3729
vn 0.3637 -0.9135 0.1821
vn 0.3353 0.9069 0.2551
vn 0.6519 -0.5080 0.5630
vn 0.4036 -0.2267 0.8864
vn 0.1020 0.8685 0.4851
vn -0.1774 0.5726 0.8004
vn -0.0053 -0.6952 0.7188
vn -0.4485 -0.1679 0.8778
vn -0.6784 0.0908 0.7291
vn -0.7198 -0.6016 0.3464
vn -0.7350 -0.1436 -0.6627
vn -0.7114 -0.6221 0.3268
vn -0.8910 0.4470 0.0787
vn -0.9982 0.0095 0.0593
vn -0.9571 -0.2506 0.1451
vn -0.0691 -0.1226 -0.9900
vn 0.9055 0.1305 0.4038
vn -0.4175 0.6204 0.6640
vn -0.7735 -0.0271 -0.6332
s off
f 36/1/1 5/2/1 1/3/1
f 35/4/2 10/5/2 13/6/2
f 4/7/3 3/8/3 9/9/3
f 9/9/4 12/10/4 11/11/4
f 7/12/5 1/3/5 6/13/5
f 10/14/6 4/7/6 9/9/6
f 5/2/7 14/15/7 6/13/7
f 10/14/8 9/9/8 11/11/8
f 8/16/9 7/12/9 12/10/9
f 5/2/10 31/17/10 14/15/10
f 22/18/11 25/19/11 23/20/11
f 6/13/12 14/15/12 12/10/12
f 13/6/13 10/5/13 17/21/13
f 12/10/14 15/22/14 16/23/14
f 12/10/15 14/15/15 15/22/15
f 17/24/16 11/11/16 19/25/16
f 14/15/17 20/26/17 15/22/17
f 18/27/18 15/22/18 21/28/18
f 14/15/19 31/17/19 20/29/19
f 17/21/20 19/30/20 27/31/20
f 34/32/21 29/33/21 36/1/21
f 23/20/22 25/19/22 26/34/22
f 27/31/23 23/20/23 30/35/23
f 25/19/24 24/36/24 28/37/24
f 26/34/25 25/19/25 28/37/25
f 28/37/26 24/36/26 29/33/26
f 26/34/27 28/37/27 30/35/27
f 13/6/28 27/31/28 37/38/28
f 28/37/29 32/39/29 30/35/29
f 31/17/30 36/1/30 29/33/30
f 37/38/31 30/35/31 33/40/31
f 32/39/32 38/41/32 33/40/32
f 37/38/33 35/4/33 13/6/33
f 31/17/34 5/2/34 36/1/34
f 34/32/35 36/1/35 1/3/35
f 38/41/36 34/32/36 2/42/36
f 33/40/37 3/8/37 39/43/37
f 4/7/38 35/4/38 39/43/38
f 4/7/39 39/43/39 3/8/39
f 10/14/40 35/4/40 4/7/40
f 2/42/41 1/3/41 7/12/41
f 1/3/42 5/2/42 6/13/42
f 8/16/43 2/42/43 7/12/43
f 7/12/44 6/13/44 12/10/44
f 16/23/45 11/11/45 12/10/45
f 17/24/46 10/14/46 11/11/46
f 11/11/47 16/23/47 19/25/47
f 18/27/48 16/23/48 15/22/48
f 16/23/49 18/27/49 19/25/49
f 21/28/50 15/22/50 20/26/50
f 19/30/51 18/44/51 22/18/51
f 22/18/52 18/44/52 21/45/52
f 19/30/53 22/18/53 27/31/53
f 24/36/54 21/45/54 20/29/54
f 25/19/55 21/45/55 24/36/55
f 13/6/56 17/21/56 27/31/56
f 20/29/57 31/17/57 24/36/57
f 27/31/58 22/18/58 23/20/58
f 30/35/59 23/20/59 26/34/59
f 24/36/60 31/17/60 29/33/60
f 28/37/61 29/33/61 32/39/61
f 27/31/62 30/35/62 37/38/62
f 33/40/63 30/35/63 32/39/63
f 32/39/64 34/32/64 38/41/64
f 39/43/65 37/38/65 33/40/65
f 3/8/66 8/16/66 9/9/66
f 37/38/67 39/43/67 35/4/67
f 2/42/68 34/32/68 1/3/68
f 3/8/69 38/41/69 2/42/69
f 33/40/70 38/41/70 3/8/70
f 9/9/71 8/16/71 12/10/71
f 22/18/72 21/45/72 25/19/72
f 34/32/73 32/39/73 29/33/73
f 3/8/74 2/42/74 8/16/74
