# Blender v2.77 (sub 0) OBJ File: ''
# www.blender.org
mtllib target.mtl
o target
v 7.535352 3.927296 -0.000000
v 7.535352 0.041194 7.535352
v 7.535352 0.041194 -7.535352
v 0.000000 3.927296 7.535352
v -7.535352 0.041194 7.535352
v -7.535352 3.927296 -0.000000
v -7.535352 0.041194 -7.535352
v 0.000000 3.927296 -7.535352
v 0.000000 1.434426 3.767676
v 3.767676 1.434426 -0.000000
v 0.000000 1.434426 -0.000000
v 3.767676 3.927296 -0.000000
v 7.535352 3.927296 -3.767676
v 3.767676 3.927296 -3.767676
v -3.767676 3.927296 -0.000000
v -3.767676 1.434426 -3.767676
v -3.767676 3.927296 -3.767676
v -3.767676 3.927296 7.535352
v 0.000000 3.927296 3.767676
v -3.767676 3.927296 3.767676
v 0.000000 3.927296 -3.767676
v 3.767676 1.434426 -3.767676
v -7.535352 3.927296 3.767676
v 0.000000 1.434426 -3.767676
v -3.767676 3.927296 -7.535352
v -3.767676 1.434426 3.767676
v -3.767676 1.434426 -0.000000
v -7.535352 3.927296 -3.767676
v 3.767676 3.927296 -7.535352
v 3.767676 3.927296 3.767676
v 3.767676 7.637756 7.535352
v 7.535352 7.637756 3.767676
v 3.767676 7.637756 3.767676
v 3.767676 3.927296 7.535352
v 7.535352 7.637756 7.535352
v 7.535352 3.927296 7.535352
v 7.535352 3.927296 3.767676
v -7.535352 7.637756 7.535352
v -3.767676 7.637756 3.767676
v -7.535352 7.637756 3.767676
v -7.535352 3.927296 7.535352
v -3.767676 7.637756 7.535352
v -7.535352 7.637756 -3.767676
v -3.767676 7.637756 -7.535352
v -7.535352 7.637756 -7.535352
v -7.535352 3.927296 -7.535352
v -3.767676 7.637756 -3.767676
v 3.767676 7.637756 -3.767676
v 7.535352 7.637756 -7.535352
v 3.767676 7.637756 -7.535352
v 7.535352 7.637756 -3.767676
v 7.535352 3.927296 -7.535352
v 3.767676 1.434426 3.767676
vt 1.4872 0.9863
vt 1.9872 0.4705
vt 0.9872 0.4705
vt 0.5034 0.9863
vt 1.0034 0.4705
vt 0.0034 0.4705
vt 0.4872 0.9863
vt -0.0128 0.4705
vt 0.9872 0.4705
vt -0.4966 0.9863
vt -0.9966 0.4705
vt 0.0034 0.4705
vt 0.0034 1.9872
vt 1.0034 0.9872
vt 0.0034 0.9872
vt 0.5034 0.7372
vt 0.2534 0.4872
vt 0.5034 0.4872
vt 0.2534 0.4872
vt 0.0034 0.2372
vt 0.2534 0.2372
vt 0.4872 0.9863
vt 0.2372 0.6554
vt 0.2372 0.9863
vt 0.7534 0.9872
vt 0.5034 0.7372
vt 0.7534 0.7372
vt 0.5034 0.9863
vt 0.2534 0.6554
vt 0.2534 0.9863
vt 0.0034 0.7372
vt -0.2466 0.4872
vt 0.0034 0.4872
vt 0.2534 0.2372
vt 0.5034 0.2372
vt 0.7534 1.2372
vt 0.5034 0.9872
vt 0.7534 0.9872
vt 0.7534 0.7372
vt 0.7534 0.4872
vt -0.2466 0.2372
vt 0.0034 0.2372
vt 0.7534 0.2372
vt 0.5034 1.2372
vt 0.2534 0.9872
vt 0.5034 0.9863
vt 0.7534 0.6554
vt 0.7534 0.9863
vt 0.2534 0.7372
vt 0.0034 0.4872
vt 0.2372 0.9863
vt 0.4872 0.6554
vt 0.4872 0.9863
vt 0.5034 0.9872
vt 0.2534 0.9872
vt 0.0034 0.7372
vt 0.2534 0.7372
vt 0.9872 1.4788
vt 0.7372 0.9863
vt 0.9872 0.9863
vt 0.0034 1.4788
vt 0.2534 0.9863
vt 0.0034 0.9863
vt 0.7372 1.4788
vt 0.9872 0.9863
vt 0.7372 0.9863
vt 0.2534 1.4788
vt 0.0034 0.9863
vt 0.2534 0.9863
vt 0.0034 0.9872
vt -0.2466 0.7372
vt 0.0034 0.7372
vt 0.9872 1.4788
vt 0.7372 0.9863
vt 0.9872 0.9863
vt 0.7534 1.4788
vt 1.0034 0.9863
vt 0.7534 0.9863
vt 0.7372 1.4788
vt 0.9872 0.9863
vt 0.7372 0.9863
vt 0.0034 1.4788
vt -0.2466 0.9863
vt 0.0034 0.9863
vt 0.0034 1.2372
vt -0.2466 0.9872
vt 0.0034 0.9872
vt 0.2372 1.4788
vt -0.0128 0.9863
vt 0.2372 0.9863
vt 0.7534 1.4788
vt 1.0034 0.9863
vt 0.7534 0.9863
vt 0.9872 1.4788
vt 1.2372 0.9863
vt 0.9872 0.9863
vt 0.0034 1.4788
vt -0.2466 0.9863
vt 0.0034 0.9863
vt 0.2534 1.2372
vt 0.0034 0.9872
vt 0.2534 0.9872
vt 0.2372 1.4788
vt -0.0128 0.9863
vt 0.0034 1.4788
vt 0.0034 0.9863
vt 0.9872 1.4788
vt 1.2372 0.9863
vt 0.9872 0.9863
vt 0.2534 1.4788
vt 0.0034 0.9863
vt 0.2534 0.9863
vt 0.7372 0.6554
vt 0.5034 0.6554
vt 0.5034 0.6554
vt 0.4872 0.6554
vt 1.7372 0.9863
vt 1.9872 0.9863
vt -0.7466 0.9863
vt -0.9966 0.9863
vt 1.0034 1.9872
vt 0.2534 0.7372
vt -0.2466 0.7372
vt 0.2534 1.2372
vt 0.0034 0.7372
vt 0.2372 0.6554
vt 0.2534 0.9872
vt 0.0034 0.9872
vt 0.7372 1.4788
vt 0.2534 1.4788
vt 0.9872 1.4788
vt 0.0034 1.4788
vt -0.2466 0.9872
vt 0.7372 1.4788
vt 1.0034 1.4788
vt 0.9872 1.4788
vt -0.2466 1.4788
vt -0.2466 1.2372
vt -0.0128 1.4788
vt 1.0034 1.4788
vt 1.2372 1.4788
vt -0.2466 1.4788
vt 0.0034 1.2372
vt -0.0128 1.4788
vt 0.2534 1.4788
vt 1.2372 1.4788
vt 0.0034 1.4788
vt 0.7534 0.6554
vt 0.2534 0.6554
vt 0.7372 0.6554
vn 1.0000 0.0000 0.0000
vn 0.0000 0.0000 1.0000
vn -1.0000 0.0000 0.0000
vn 0.0000 0.0000 -1.0000
vn 0.0000 -1.0000 0.0000
vn 0.0000 1.0000 0.0000
usemtl None
s 1
f 1/1/1 2/2/1 3/3/1
f 4/4/2 5/5/2 2/6/2
f 6/7/3 7/8/3 5/9/3
f 8/10/4 3/11/4 7/12/4
f 2/13/5 7/14/5 3/15/5
f 9/16/6 10/17/6 11/18/6
f 12/19/6 13/20/6 14/21/6
f 15/22/1 16/23/1 17/24/1
f 18/25/6 19/26/6 20/27/6
f 21/28/2 22/29/2 14/30/2
f 23/31/6 15/32/6 6/33/6
f 11/18/6 22/34/6 24/35/6
f 17/36/6 8/37/6 25/38/6
f 26/39/6 11/18/6 27/40/6
f 6/33/6 17/41/6 28/42/6
f 27/40/6 24/35/6 16/43/6
f 21/44/6 29/45/6 8/37/6
f 19/46/4 26/47/4 20/48/4
f 30/49/6 1/50/6 12/19/6
f 14/51/3 10/52/3 12/53/3
f 4/54/6 30/49/6 19/26/6
f 31/55/6 32/56/6 33/57/6
f 31/58/3 30/59/3 34/60/3
f 35/61/2 34/62/2 36/63/2
f 32/64/1 36/65/1 37/66/1
f 33/67/4 37/68/4 30/69/4
f 38/70/6 39/71/6 40/72/6
f 38/73/3 23/74/3 41/75/3
f 42/76/2 41/77/2 18/78/2
f 39/79/1 18/80/1 20/81/1
f 40/82/4 20/83/4 23/84/4
f 43/85/6 44/86/6 45/87/6
f 43/88/3 46/89/3 28/90/3
f 47/91/2 28/92/2 17/93/2
f 44/94/1 17/95/1 25/96/1
f 45/97/4 25/98/4 46/99/4
f 48/100/6 49/101/6 50/102/6
f 48/103/3 29/104/3 14/51/3
f 51/105/2 14/30/2 13/106/2
f 49/107/1 13/108/1 52/109/1
f 50/110/4 52/111/4 29/112/4
f 12/53/3 53/113/3 30/59/3
f 17/93/2 24/114/2 21/28/2
f 30/69/4 9/115/4 19/46/4
f 20/81/1 27/116/1 15/22/1
f 3/3/1 52/109/1 13/108/1
f 1/1/1 37/117/1 2/2/1
f 3/3/1 13/108/1 1/1/1
f 36/118/1 2/2/1 37/117/1
f 2/6/2 36/63/2 34/62/2
f 4/4/2 18/78/2 5/5/2
f 2/6/2 34/62/2 4/4/2
f 41/77/2 5/5/2 18/78/2
f 5/9/3 41/75/3 23/74/3
f 6/7/3 28/90/3 7/8/3
f 5/9/3 23/74/3 6/7/3
f 46/89/3 7/8/3 28/90/3
f 7/12/4 46/99/4 25/98/4
f 8/10/4 29/119/4 3/11/4
f 7/12/4 25/98/4 8/10/4
f 52/120/4 3/11/4 29/119/4
f 2/13/5 5/121/5 7/14/5
f 9/16/6 53/122/6 10/17/6
f 12/19/6 1/50/6 13/20/6
f 15/22/1 27/116/1 16/23/1
f 18/25/6 4/54/6 19/26/6
f 21/28/2 24/114/2 22/29/2
f 23/31/6 20/123/6 15/32/6
f 11/18/6 10/17/6 22/34/6
f 17/36/6 21/44/6 8/37/6
f 26/39/6 9/16/6 11/18/6
f 6/33/6 15/32/6 17/41/6
f 27/40/6 11/18/6 24/35/6
f 21/44/6 14/124/6 29/45/6
f 19/46/4 9/115/4 26/47/4
f 30/49/6 37/125/6 1/50/6
f 14/51/3 22/126/3 10/52/3
f 4/54/6 34/127/6 30/49/6
f 31/55/6 35/128/6 32/56/6
f 31/58/3 33/129/3 30/59/3
f 35/61/2 31/130/2 34/62/2
f 32/64/1 35/131/1 36/65/1
f 33/67/4 32/132/4 37/68/4
f 38/70/6 42/133/6 39/71/6
f 38/73/3 40/134/3 23/74/3
f 42/76/2 38/135/2 41/77/2
f 39/79/1 42/136/1 18/80/1
f 40/82/4 39/137/4 20/83/4
f 43/85/6 47/138/6 44/86/6
f 43/88/3 45/139/3 46/89/3
f 47/91/2 43/140/2 28/92/2
f 44/94/1 47/141/1 17/95/1
f 45/97/4 44/142/4 25/98/4
f 48/100/6 51/143/6 49/101/6
f 48/103/3 50/144/3 29/104/3
f 51/105/2 48/145/2 14/30/2
f 49/107/1 51/146/1 13/108/1
f 50/110/4 49/147/4 52/111/4
f 12/53/3 10/52/3 53/113/3
f 17/93/2 16/148/2 24/114/2
f 30/69/4 53/149/4 9/115/4
f 20/81/1 26/150/1 27/116/1
