# Blender v2.77 (sub 0) OBJ File: ''
# www.blender.org
o target.001
v 7.423796 0.098725 7.535352
v 0.000000 3.927296 7.535352
v -7.535352 0.041194 7.535352
v 7.423796 0.041194 7.535352
v 7.423796 0.156256 7.535352
v 3.767676 3.927296 7.535352
v -3.767676 3.927296 7.535352
v -7.535352 0.041194 -7.423799
v 7.423796 3.927296 7.535352
v 3.711899 3.927296 3.823454
v 3.767676 3.927296 3.879232
v 0.000000 3.927296 3.767676
v -7.535352 3.927296 7.535352
v -7.535352 3.927296 0.000000
v -7.535352 0.098724 -7.423799
v 7.423797 5.246274 7.535352
v 3.656121 3.927296 3.767676
v 3.767676 5.356135 7.535352
v 3.767676 4.037157 3.879232
v -3.767676 3.927296 3.767676
v -3.767676 7.637755 7.535353
v -7.535352 3.927296 3.767676
v -7.535352 3.927296 -3.767676
v -7.535352 0.156254 -7.423799
v 7.423797 5.356135 7.535352
v 3.656121 3.853486 3.767676
v 0.000000 1.434426 3.767676
v 3.767676 5.356136 3.879232
v -3.767676 7.637756 3.767676
v -3.767676 1.434426 3.767676
v -7.535352 7.637755 7.535353
v -3.767676 3.927296 0.000000
v -3.879230 3.927296 -3.767676
v -3.823453 3.927296 -3.711899
v -7.535352 3.927296 -7.423799
v 5.595737 5.356135 5.707292
v 3.656121 1.434426 3.767676
v -7.535352 7.637756 3.767676
v -3.767676 1.434426 0.000000
v -3.767676 3.927296 -3.656122
v -3.879230 5.246276 -3.767676
v -7.535352 5.356136 -3.767676
v -7.535352 4.037156 -7.423799
v 1.828061 1.434426 1.939616
v -0.055777 1.434426 0.055777
v 0.000000 1.434426 0.111555
v -0.111555 1.434426 0.000000
v -3.767676 1.508236 -3.656122
v -3.879230 5.356136 -3.767676
v -7.535352 5.356136 -7.423799
v -3.767676 1.434426 -3.656122
v -1.939615 1.434426 -1.828061
v -5.707291 5.356136 -5.595737
vt 0.0000 0.0000
vt 0.0000 0.0000
vt 0.0000 0.0000
vt 0.0000 0.0000
vt 0.0000 0.0000
vt 0.0000 0.0000
vt 0.0000 0.0000
vt 0.0000 0.0000
vt 0.0000 0.0000
vt 0.0000 0.0000
vt 0.0000 0.0000
vt 0.0000 0.0000
vt 0.0000 0.0000
vt 0.0000 0.0000
vt 0.0000 0.0000
vt 0.0000 0.0000
vt 0.0000 0.0000
vt 0.0000 0.0000
vt 0.0000 0.0000
vt 0.0000 0.0000
vt 0.0000 0.0000
vt 0.0000 0.0000
vt 0.0000 0.0000
vt 0.0000 0.0000
vt 0.0000 0.0000
vt 0.0000 0.0000
vt 0.0000 0.0000
vt 0.0000 0.0000
vt 0.0000 0.0000
vt 0.0000 0.0000
vt 0.0000 0.0000
vt 0.0000 0.0000
vt 0.0000 0.0000
vt 0.5034 0.9863
vt 0.0108 0.4705
vt 0.0108 0.4781
vt 0.2534 0.9863
vt 0.0108 0.4858
vt 0.7534 0.9863
vt 1.0034 0.4705
vt 0.0108 1.9872
vt 1.0034 1.9872
vt 1.0034 0.9946
vt 0.0108 0.9863
vt 0.2571 0.7409
vt 0.2534 0.9872
vt 0.2534 0.7446
vt 0.7534 0.9872
vt 0.5034 0.9872
vt 0.5034 0.7372
vt 1.0034 0.9863
vt -0.0054 0.4705
vt 0.4872 0.9863
vt -0.0054 0.4781
vt 0.0108 1.4642
vt 0.2608 0.7372
vt 0.9872 0.9863
vt 0.7446 1.0009
vt 0.7446 0.9863
vt 0.7534 0.7372
vt 0.7534 1.4788
vt 0.9872 0.4705
vt 0.9872 0.9863
vt 0.7372 0.9863
vt 0.2372 0.9863
vt -0.0054 0.4858
vt 0.2534 1.4788
vt 0.0108 1.4788
vt 0.2608 0.9765
vt 0.5034 0.9863
vt 0.2608 0.9863
vt 0.9872 1.4788
vt 0.7446 1.4788
vt 0.7372 1.4788
vt 0.9872 0.9863
vt 0.7372 0.9863
vt 0.7534 0.6554
vt 0.7534 0.9863
vt 0.9872 1.4788
vt 1.0034 1.4788
vt 0.9872 1.4788
vt 0.0034 0.7372
vt -0.2466 0.4872
vt 0.0034 0.4872
vt 0.0034 0.2372
vt -0.2429 0.2409
vt -0.2392 0.2372
vt -0.0054 0.9863
vt 0.1321 0.8659
vt 0.2534 0.9872
vt 0.0108 0.9872
vt 0.2608 0.6554
vt 0.5034 0.6554
vt 0.2534 0.7446
vt 0.0034 1.4788
vt -0.2466 1.4788
vt -0.2466 0.9863
vt 0.7372 0.6554
vt 0.4872 0.6554
vt 0.0034 0.9872
vt -0.2466 0.9872
vt -0.2466 0.7372
vt 0.7372 1.4788
vt -0.2466 0.7372
vt -0.2466 0.2446
vt 0.7608 1.4642
vt 1.0034 0.9863
vt 0.7608 0.9863
vt -0.0054 1.0009
vt 0.3821 0.6159
vt 0.5034 0.7372
vt 0.2608 0.7372
vt 0.7534 0.7372
vt 0.5034 0.4946
vt 0.5071 0.4909
vt 0.0034 0.9863
vt 0.0034 0.7372
vt 0.4872 0.9863
vt 0.7534 0.4872
vt 0.5108 0.4872
vt 0.2446 0.9863
vt 0.2446 0.6652
vt 1.0034 1.4788
vt 0.7608 1.4788
vt 0.2372 1.4788
vt -0.0054 1.4788
vt 0.2446 0.6554
vt 0.6321 0.3659
vt -0.1179 1.1159
vt 0.0034 1.2372
vt -0.2392 1.2372
vt 0.0034 0.9946
vt 0.7534 0.2446
vn 0.7071 -0.0000 -0.7071
vn 0.0000 0.0000 1.0000
vn 0.0000 -1.0000 -0.0000
vn 0.0000 1.0000 -0.0000
vn -1.0000 -0.0000 0.0000
vn 0.0000 0.0000 -1.0000
vn 1.0000 0.0000 0.0000
s off
f 51/1/1 52/2/1 8/3/1
f 1/4/1 4/5/1 37/6/1
f 15/7/1 24/8/1 51/1/1
f 4/5/1 8/3/1 45/9/1
f 16/10/1 9/11/1 36/12/1
f 5/13/1 1/4/1 37/6/1
f 35/14/1 43/15/1 53/16/1
f 25/17/1 16/10/1 36/12/1
f 19/18/1 28/19/1 36/12/1
f 36/12/1 9/11/1 37/6/1
f 24/8/1 35/14/1 48/20/1
f 50/21/1 53/16/1 43/15/1
f 49/22/1 41/23/1 53/16/1
f 35/14/1 53/16/1 48/20/1
f 19/18/1 36/12/1 11/24/1
f 11/24/1 36/12/1 37/6/1
f 53/16/1 41/23/1 33/25/1
f 34/26/1 40/27/1 48/20/1
f 53/16/1 33/25/1 48/20/1
f 10/28/1 11/24/1 26/29/1
f 26/29/1 17/30/1 10/28/1
f 46/31/1 44/32/1 4/5/1
f 37/6/1 26/29/1 11/24/1
f 33/25/1 34/26/1 48/20/1
f 24/8/1 48/20/1 51/1/1
f 37/6/1 9/11/1 5/13/1
f 45/9/1 46/31/1 4/5/1
f 47/33/1 45/9/1 8/3/1
f 37/6/1 4/5/1 44/32/1
f 15/7/1 51/1/1 8/3/1
f 47/33/1 8/3/1 52/2/1
s 1
f 2/34/2 4/35/2 1/36/2
f 6/37/2 1/36/2 5/38/2
f 2/34/2 7/39/2 3/40/2
f 4/41/3 3/42/3 8/43/3
f 9/44/2 6/37/2 5/38/2
f 10/45/4 6/46/4 11/47/4
f 7/48/4 2/49/4 12/50/4
f 13/51/2 3/40/2 7/39/2
f 8/52/5 14/53/5 15/54/5
f 16/55/2 6/37/2 9/44/2
f 12/50/4 10/45/4 17/56/4
f 6/57/5 19/58/5 11/59/5
f 7/48/4 12/50/4 20/60/4
f 21/61/2 13/51/2 7/39/2
f 3/62/5 13/63/5 22/64/5
f 3/62/5 22/64/5 14/53/5
f 15/54/5 23/65/5 24/66/5
f 18/67/2 16/55/2 25/68/2
f 26/69/6 12/70/6 17/71/6
f 19/58/5 18/72/5 28/73/5
f 29/74/7 7/75/7 20/76/7
f 12/70/6 30/77/6 20/78/6
f 29/74/7 21/79/7 7/75/7
f 21/61/2 31/80/2 13/51/2
f 31/81/5 22/64/5 13/63/5
f 22/82/4 32/83/4 14/84/4
f 23/85/4 34/86/4 33/87/4
f 24/66/5 23/65/5 35/88/5
f 36/89/4 18/90/4 25/91/4
f 37/92/6 27/93/6 26/69/6
f 12/70/6 27/93/6 30/77/6
f 28/94/4 18/90/4 36/89/4
f 38/95/6 29/96/6 20/97/6
f 20/76/7 30/98/7 39/99/7
f 31/100/4 21/101/4 29/102/4
f 31/81/5 38/103/5 22/64/5
f 22/82/4 20/104/4 32/83/4
f 34/86/4 32/83/4 40/105/4
f 41/106/2 23/107/2 33/108/2
f 23/65/5 43/109/5 35/88/5
f 44/110/4 27/111/4 37/112/4
f 30/113/4 46/114/4 45/115/4
f 38/95/6 20/97/6 22/116/6
f 31/100/4 29/102/4 38/117/4
f 20/76/7 39/99/7 32/118/7
f 39/119/4 45/115/4 47/120/4
f 40/121/7 32/118/7 48/122/7
f 42/123/2 41/106/2 49/124/2
f 43/109/5 42/125/5 50/126/5
f 46/114/4 27/111/4 44/110/4
f 48/122/7 39/99/7 51/127/7
f 52/128/4 39/119/4 47/120/4
f 53/129/4 42/130/4 49/131/4
f 50/132/4 42/130/4 53/129/4
f 51/133/4 39/119/4 52/128/4
f 2/34/2 3/40/2 4/35/2
f 6/37/2 2/34/2 1/36/2
f 10/45/4 2/49/4 6/46/4
f 8/52/5 3/62/5 14/53/5
f 12/50/4 2/49/4 10/45/4
f 6/57/5 18/72/5 19/58/5
f 15/54/5 14/53/5 23/65/5
f 18/67/2 6/37/2 16/55/2
f 26/69/6 27/93/6 12/70/6
f 23/85/4 14/84/4 34/86/4
f 34/86/4 14/84/4 32/83/4
f 23/65/5 42/125/5 43/109/5
f 30/113/4 27/111/4 46/114/4
f 39/119/4 30/113/4 45/115/4
f 42/123/2 23/107/2 41/106/2
f 48/122/7 32/118/7 39/99/7
